<svg width="16" height="16" viewBox="0 0 16 16" fill="none" xmlns="http://www.w3.org/2000/svg">
<path d="M11.1613 6.70968C11.5161 6.70968 11.7097 7.12903 11.4516 7.35484L8.25806 10.5161C8.09677 10.6774 7.87097 10.6774 7.70968 10.5161L4.51613 7.35484C4.29032 7.12903 4.45161 6.70968 4.80645 6.70968H11.1613ZM0 8C0 3.58065 3.58065 0 8 0C12.4194 0 16 3.58065 16 8C16 12.4194 12.4194 16 8 16C3.58065 16 0 12.4194 0 8ZM1.54839 8C1.54839 11.5484 4.41935 14.4516 8 14.4516C11.5484 14.4516 14.4516 11.5484 14.4516 8C14.4516 4.41936 11.5484 1.54839 8 1.54839C4.41935 1.54839 1.54839 4.41936 1.54839 8Z" fill="#3A4B67"/>
</svg>
