<?xml version="1.0" standalone="no"?><!DOCTYPE svg PUBLIC "-//W3C//DTD SVG 1.1//EN" "http://www.w3.org/Graphics/SVG/1.1/DTD/svg11.dtd"><svg t="1553001431585" class="icon" style="" viewBox="0 0 1024 1024" version="1.1" xmlns="http://www.w3.org/2000/svg" p-id="2630" xmlns:xlink="http://www.w3.org/1999/xlink" width="96" height="96"><defs><style type="text/css"></style></defs><path d="M871.5 775.9L665.8 570.2c-10-10-26.2-10-36.2 0l-27.9 27.9-317-319.9-1.6-62.6-123.9-77.5L98 198.8l73.6 120.6 65.7 1 321.1 321.1-26.9 26.9c-10 10-10 26.2 0 36.2l205.7 205.7c10 10 26.2 10 36.2 0l98.1-98.1c9.9-10.1 9.9-26.4 0-36.3z" fill="#ffffff" p-id="2631"></path><path d="M911.2 231.8L775.9 367.1 664.2 255.4l134.7-134.7c-24.7-10.2-51.7-15.9-80.1-15.9-115.5 0-209.2 93.7-209.2 209.2 0 46.3 15.1 89.2 40.6 123.8-64.5 54.3-372.7 313.5-397.4 332.5-27.3 23.3-30.3 31.3-30.3 31.3-12.5 23.4-8.2 40.5-2.4 54.6 5.2 14.2 30 37.4 30 37.4 15.1 14.3 18.9 17.7 38.7 24.3 22.3 4.1 38.1-1.9 51.9-13.6 3-1.3 338.4-367.9 375.1-408.3 30.4 17.3 65.6 27.1 103.1 27.1C834.3 523.2 928 429.5 928 314c0-29.2-6-57-16.8-82.2zM186.1 872.6c-17.6 0-31.8-14.2-31.8-31.8s14.2-31.8 31.8-31.8 31.8 14.2 31.8 31.8c0 17.5-14.2 31.8-31.8 31.8z" fill="#ffffff" p-id="2632"></path></svg>