<svg width="96" height="39" viewBox="0 0 96 39" fill="none" xmlns="http://www.w3.org/2000/svg">
<rect x="0.5" y="0.5" width="95" height="38" rx="19" fill="white"/>
<path d="M18.3198 14.4999L20.8798 11.9399L23.4398 14.4999" stroke="#5A99C1" stroke-width="1.5" stroke-miterlimit="10" stroke-linecap="round" stroke-linejoin="round"/>
<path d="M20.8799 22.18V12.01" stroke="#5A99C1" stroke-width="1.5" stroke-miterlimit="10" stroke-linecap="round" stroke-linejoin="round"/>
<path d="M13 20C13 24.42 16 28 21 28C26 28 29 24.42 29 20" stroke="#5A99C1" stroke-width="1.5" stroke-miterlimit="10" stroke-linecap="round" stroke-linejoin="round"/>
<path d="M45.604 15.16L44.578 16.546C44.206 16.198 43.774 15.91 43.282 15.682C42.79 15.442 42.328 15.322 41.896 15.322C41.344 15.322 40.864 15.466 40.456 15.754C40.06 16.03 39.862 16.426 39.862 16.942C39.862 17.338 39.994 17.686 40.258 17.986C40.522 18.274 40.942 18.568 41.518 18.868L42.562 19.408C43.63 19.96 44.398 20.506 44.866 21.046C45.346 21.574 45.586 22.27 45.586 23.134C45.586 24.094 45.22 24.934 44.488 25.654C43.756 26.362 42.76 26.716 41.5 26.716C39.88 26.716 38.506 26.134 37.378 24.97L38.404 23.638C39.328 24.598 40.354 25.078 41.482 25.078C42.142 25.078 42.676 24.904 43.084 24.556C43.492 24.196 43.696 23.752 43.696 23.224C43.696 22.732 43.54 22.336 43.228 22.036C42.916 21.736 42.34 21.37 41.5 20.938L40.564 20.452C39.7 20.008 39.046 19.516 38.602 18.976C38.17 18.424 37.954 17.782 37.954 17.05C37.954 16.03 38.332 15.214 39.088 14.602C39.844 13.99 40.762 13.684 41.842 13.684C43.27 13.684 44.524 14.176 45.604 15.16ZM49.0738 19.39C49.7938 18.574 50.6638 18.166 51.6838 18.166C52.6318 18.166 53.3698 18.442 53.8978 18.994C54.4378 19.534 54.7078 20.272 54.7078 21.208V26.5H52.9258V21.46C52.9258 20.908 52.7758 20.488 52.4758 20.2C52.1758 19.912 51.7858 19.768 51.3058 19.768C50.5138 19.768 49.7758 20.164 49.0918 20.956V26.5H47.3098V13.9H49.0918V18.49C49.0918 18.982 49.0858 19.282 49.0738 19.39ZM59.5539 25.312C60.1059 25.312 60.5679 25.162 60.9399 24.862C61.3119 24.562 61.4979 24.118 61.4979 23.53V22.828C61.3419 22.948 61.0539 23.008 60.6339 23.008H59.5539C58.5939 23.008 58.1139 23.374 58.1139 24.106C58.1139 24.442 58.2399 24.73 58.4919 24.97C58.7439 25.198 59.0979 25.312 59.5539 25.312ZM61.4979 21.172V21.046C61.4979 20.626 61.3479 20.302 61.0479 20.074C60.7479 19.846 60.3339 19.732 59.8059 19.732C59.0019 19.732 58.2399 20.02 57.5199 20.596L56.6739 19.264C57.5139 18.532 58.5999 18.166 59.9319 18.166C60.9879 18.166 61.8099 18.436 62.3979 18.976C62.9979 19.504 63.2979 20.206 63.2979 21.082V26.5H61.4979V25.654C61.2819 26.002 60.9579 26.266 60.5259 26.446C60.0939 26.626 59.6439 26.716 59.1759 26.716C58.2639 26.716 57.5439 26.482 57.0159 26.014C56.4999 25.534 56.2419 24.916 56.2419 24.16C56.2419 23.368 56.4999 22.756 57.0159 22.324C57.5439 21.892 58.2639 21.676 59.1759 21.676H60.9219C61.3059 21.676 61.4979 21.508 61.4979 21.172ZM70.094 18.292V19.966H69.158C67.886 19.966 67.25 20.8 67.25 22.468V26.5H65.468V18.382H67.214V19.678C67.37 19.222 67.64 18.868 68.024 18.616C68.42 18.364 68.9 18.238 69.464 18.238C69.668 18.238 69.878 18.256 70.094 18.292ZM79.1674 22.972V22.99H72.7774C72.8494 23.626 73.0894 24.148 73.4974 24.556C73.9174 24.952 74.4394 25.15 75.0634 25.15C75.9274 25.15 76.5634 24.838 76.9714 24.214L79.0054 24.268C78.6574 25.06 78.1294 25.666 77.4214 26.086C76.7254 26.506 75.9394 26.716 75.0634 26.716C73.8514 26.716 72.8494 26.314 72.0574 25.51C71.2654 24.694 70.8694 23.668 70.8694 22.432C70.8694 21.196 71.2594 20.176 72.0394 19.372C72.8194 18.568 73.8094 18.166 75.0094 18.166C76.1854 18.166 77.1694 18.574 77.9614 19.39C78.7654 20.194 79.1674 21.388 79.1674 22.972ZM75.0274 19.732C74.4394 19.732 73.9414 19.912 73.5334 20.272C73.1374 20.62 72.8854 21.088 72.7774 21.676H77.1514C77.1034 21.136 76.8814 20.68 76.4854 20.308C76.0894 19.924 75.6034 19.732 75.0274 19.732Z" fill="#4F92BD"/>
<rect x="0.5" y="0.5" width="95" height="38" rx="19" stroke="#4F92BD"/>
</svg>
